<svg version="1" xmlns="http://www.w3.org/2000/svg" width="933.333" height="933.333" viewBox="0 0 700.000000 700.000000"><path d="M316 37.6c-48.6 4-86.1 12.4-119.7 26.9C136.6 90.3 93 135 72.8 191.5c-4.4 12.1-8.8 30-8.8 35.6 0 3.4-.4 3.9-5.2 6.4-15 7.8-28.1 20.7-34.8 33.9-5.5 11.1-7.3 18.9-7.4 31.6 0 12.1 1.9 17.9 8 24.1 3.1 3.2 3.5 4.3 4.5 12.4.6 4.9 2.2 12.1 3.6 16 1.3 3.8 2.7 7.8 3 8.7.3 1.1-.9 3.4-3.5 6.3-5.3 6-11.5 18.3-13.8 27-2.4 9.5-2.4 24.2 0 31.3 1 3.1 3.5 7.1 5.7 9.4 3.6 3.8 4 4.7 5 12.7 1.2 10 4.8 21.4 9.1 28.9 4.4 7.8 13.6 19 20 24.4l5.6 4.8.4 18.7c.4 18 .5 19.1 3.2 25.3 1.5 3.5 4.2 8.5 5.9 11 35.6 51.8 162.3 85.7 302.4 80.9 48.4-1.6 88.4-6.8 127.8-16.4 70.7-17.3 115-43.2 129.1-75.5 2.7-6.2 2.8-7.3 3.2-25l.4-18.5 7.7-7.5c16.9-16.4 24.6-31.1 27.1-51.7 1-7.7 1.4-8.7 4.4-11.4 10.6-9.3 11.4-33.8 1.8-54.4-1.6-3.3-5.2-9.1-8.1-12.9-4.9-6.4-5.2-7.1-4.1-9.5 2.5-5.3 5-14.8 6-23 1-7.9 1.4-8.7 5.1-12.4 11.6-11.7 10.1-41-3.2-61.1-7.1-10.9-18.4-21.1-30.6-27.7-5.8-3.2-6.3-3.6-6.3-6.9 0-5.6-4.5-23.5-8.8-35.5C607 135 563.4 90.3 503.7 64.5c-28.5-12.3-59.5-20.1-99.2-25.1-12.3-1.5-76.1-2.8-88.5-1.8zM380 52c18.7 1.3 30.6 2.6 45.5 5.1C513 71.7 575.8 114.2 606.8 180c8.3 17.7 14.5 38.3 14.6 49 .1 21.6-25.1 44.3-69.4 62.2-94.5 38.3-255.5 43.6-367.5 12.2-53.3-14.9-90.5-36.6-102.1-59.6-4.1-8.1-4.8-13.6-2.9-23.1 3.9-19.1 12.6-41 23.9-59.6 36-59.7 103.5-97.2 193.1-107.1 26.3-2.9 58.8-3.7 83.5-2zM70 251.7c3.6 6.8 11 15.8 17.4 21 3.3 2.8 4.4 4.3 4.1 5.8-1.9 7.9-2.5 17.2-1.6 23.5.6 3.7 1.3 7.5 1.6 8.2.5 1.2-3.4 2-21.7 4.1-22.9 2.7-28.7 2.6-33.7-.5-7.1-4.4-6.6-24.9.9-39.8 3.8-7.5 13.2-17.6 21.8-23.4 3.7-2.5 7-4.6 7.4-4.6.4 0 2.1 2.6 3.8 5.7zm571.8-1c12.5 8.2 22.4 21.2 25.6 33.8 2 7.5 2.1 20.4.1 25.1-2.9 7-12.7 8-40.4 4.3-26.1-3.5-37.4-1.6-47.1 8.1-5.6 5.6-9.3 13.9-13.1 29.5-3.4 14.3-5.3 18.6-9.6 22.7-8.7 8.3-29.6 11.1-44.4 5.9-8.2-2.9-14.3-5.8-27.2-12.9l-11.7-6.5 4.8-3.3c9.2-6.1 15.1-14.5 21.1-29.5l2.2-5.6 14.2-3.8c7.8-2.1 20.5-6 28.1-8.7l13.9-5 16.1 1.7c44.1 4.5 60 2.4 67.3-8.7 2.4-3.6 2.8-5.2 2.8-11.2 0-5.9-.6-8.3-3.3-14.1-1.8-3.9-5.2-9.8-7.4-13.3l-4.1-6.3 1.7-3.6c1.9-4 2.2-4 10.4 1.4zm-397 80.3c2.2 0 2.2.2 2.2 12v12l-2.7.5c-1.6.4-4.8 1.1-7.3 1.6-2.5.6-13.6 5.7-24.7 11.5-28.3 14.6-37.7 16.7-54.9 12.4-9.7-2.5-15.1-6.1-18.5-12.4-2.7-4.8-6.7-20.1-5.6-21.2.3-.3 3.2 0 6.4.7 3.4.8 11.8 1.3 20.3 1.3 12.2 0 16.4-.5 26.3-2.8 11.7-2.7 31.7-9.2 43.2-14 4-1.7 7.2-2.4 9.5-2.1 1.9.3 4.5.5 5.8.5zm79.7 6.8c15.4.5 34.4.7 42.3.4 8.5-.2 14.2 0 14.2.6 0 2.2-6.1 9.7-10 12.3-4.1 2.8-9.8 4.9-13.1 4.9-.9 0-2.8.9-4.2 2l-2.6 2.1-.3 34.7c-.3 33.3-.4 34.9-2.5 38.7-8.1 15.2-26.7 15.7-35.8 1.1l-3-4.9-.3-22.6c-.5-28.5.6-26.7-16.5-27.3-13.6-.4-17.4-1.7-23.6-8-6-6-7.1-9.7-7.1-24.8v-13.5l17.3 1.7c9.4.9 29.8 2.1 45.2 2.6zm69.2 26.7c4.5 2 11.4 4.4 15.3 5.3 3.8.9 6.9 2 6.7 2.4-.1.4-4.4 5.2-9.5 10.7-11.8 12.7-19 16.5-37.4 19.6l-3.8.6v-16.6c0-14.9.2-16.6 1.8-17.2 5.6-1.9 13.3-5.8 14.8-7.4 1-1.1 2.3-1.8 2.8-1.5.6.3 4.8 2.1 9.3 4.1zM53 383.9c37.7 37.9 113.1 59 233 65.1 17.3.9 19.8 1.2 22 3 5.2 4.3 13.3 7.4 20.2 7.8 8 .5 14.6-1.5 21.8-6.4l5-3.4h19.7c27.6 0 83.8-3.2 99.4-5.6l3.6-.6 1.1 5.5c2.4 12.2 11.4 23.7 22.6 29.2 5 2.4 7.6 3 15.3 3.3l9.3.4v12.5l-4.7-.8c-8.1-1.3-14.1-3.7-33.8-14-21.5-11.1-28.6-13.4-38.5-12.6-14.7 1.2-24.9 7.3-38.9 23.1-5.5 6.3-12.1 12.7-14.7 14.4-11.8 7.9-25.8 10.6-49.9 9.9-29.1-.9-35.7-3.9-55.5-24.8-13.9-14.7-19.2-18.4-30.6-21.3-14.1-3.6-20.3-2-48.9 12.4-25.9 13.1-32.7 15.1-45.5 13.2-14.8-2.1-23.2-7-27.1-15.8-1-2.2-3.2-9.8-4.9-16.8-4.7-19.9-10-28.5-21.3-34.3-7.4-3.8-20.1-4.2-42.3-1.3-33.4 4.4-39.3 1.6-38.1-18.5.5-10.3 3.4-19.1 8.7-27.3 1.9-2.8 3.6-5.2 3.8-5.2.2 0 4.3 4 9.2 8.9zm607-3.8c6.2 9.5 8.3 16.3 8.7 27.9.4 11.5-.2 13.9-4.9 17.3-3.7 2.8-12.3 3.3-25.6 1.7l-10.4-1.3.6-5.1c.3-2.8.6-8.7.6-13.2v-8.1l6.3-4.8c3.4-2.6 9.4-8.1 13.2-12.1 3.9-4 7.3-7.3 7.6-7.4.4 0 2.1 2.3 3.9 5.1zm-46.2 36.2c-.6 9.8-2.8 14.6-8.8 20.1-4.6 4.2-9.6 6.6-13.4 6.6-3.6 0-7.2 1.9-8.5 4.4-.7 1.4-1.2 13.2-1.3 34.1-.3 36.3-.5 36.9-8.6 43.2-9.6 7.3-21.7 4.8-29.4-6-2.2-3-2.3-4.4-2.8-24.9-.4-19.1-.7-21.9-2.3-23.5-1.4-1.5-4.1-1.9-14-2.4-13.5-.7-17.3-1.8-23.2-7-4.2-3.7-8.5-11.8-8.5-16.1 0-2.3.5-2.8 3.3-3.2 52.1-8.5 83-16.9 109.2-29.6 4.4-2.1 8.2-3.9 8.4-3.9.2-.1.1 3.6-.1 8.2zM110.2 530.4c30.3 11.7 68.1 20 113.3 25 85.5 9.5 199.3 8.3 276-3 15.7-2.3 41.9-7.3 49-9.2 1.7-.5 4.5-.5 6.5.1 8.6 2.3 21.4-1.4 29.9-8.9 2.4-2.1 7.9-5.2 12.2-7 4.3-1.8 11.7-5.3 16.4-7.8l8.5-4.5v8.7c0 18.2-5.9 30.1-21.5 43-68.6 56.9-260.4 77.8-400.5 43.6-60.4-14.8-101.8-36.8-116.5-61.8-3.5-6-5.5-14.9-5.5-24.7v-8.6l10.4 5.4c5.8 2.9 15.6 7.3 21.8 9.7z"/><path d="M180.5 123.2c-3.2 1.7-8.5 7.1-10.1 10-6.2 11.8-1.9 25.4 9.8 31.2 6.6 3.3 12.5 3.3 24.3.1 9.7-2.7 12.5-4.8 12.5-9.5 0-2.8-2.2-5.4-5.5-6.4-1.1-.3-6.3.5-11.5 1.9-9.2 2.3-9.6 2.4-13 .7-7-3.4-6.3-11.1 1.6-15.7 4.2-2.5 5-4 4.4-8.5-.6-4.4-7.6-6.6-12.5-3.8zM312.4 164.6c-2.5 1.2-3.9 3.3-6.9 10-3.9 8.8-7.1 12.4-11.1 12.4-6 0-8.9-4.5-7.9-12.1.6-4.3.4-5.1-1.9-7.4-4.8-4.8-10.5-2.5-12.6 5-4.5 16.1 10.5 31.9 27 28.4 8.3-1.8 12.8-6 18.2-16.9 2.5-5.2 4.8-10.6 5-12 .5-3.5-1-6.6-3.9-7.9-2.9-1.3-2.1-1.4-5.9.5z"/></svg>